<svg xmlns="http://www.w3.org/2000/svg" width="336" height="1080" viewBox="0 0 336 1080">
<style>
.node rect { fill: var(--node-fill, #f0f4f8); stroke: var(--node-stroke, #4a90d9); stroke-width: 2; rx: 6; }
.node rect:hover { fill: var(--node-fill-hover, #dce8f5); stroke: var(--node-stroke-hover, #2a6cb8); }
.node text { font-family: monospace; font-size: 12px; fill: var(--node-text, #333); }
.node .label { font-weight: bold; }
.egress rect { fill: var(--egress-fill, #e8f5e9); stroke: var(--egress-stroke, #4caf50); }
.egress rect:hover { fill: var(--egress-fill-hover, #c8e6c9); stroke: var(--egress-stroke-hover, #388e3c); }
.edge line { stroke: var(--edge-stroke, #999); stroke-width: 1.5; }
.edge polygon { fill: var(--edge-stroke, #999); }
</style>
<g class="edge"><line x1="108" y1="40" x2="228" y2="40"/><polygon points="228,40 220,36 220,44"/></g>
<g class="edge"><line x1="108" y1="140" x2="228" y2="40"/><polygon points="228,40 220,36 220,44"/></g>
<g class="edge"><line x1="108" y1="240" x2="228" y2="40"/><polygon points="228,40 220,36 220,44"/></g>
<g class="edge"><line x1="108" y1="340" x2="228" y2="40"/><polygon points="228,40 220,36 220,44"/></g>
<g class="edge"><line x1="108" y1="440" x2="228" y2="40"/><polygon points="228,40 220,36 220,44"/></g>
<g class="edge"><line x1="108" y1="540" x2="228" y2="40"/><polygon points="228,40 220,36 220,44"/></g>
<g class="edge"><line x1="108" y1="640" x2="228" y2="40"/><polygon points="228,40 220,36 220,44"/></g>
<g class="edge"><line x1="108" y1="740" x2="228" y2="40"/><polygon points="228,40 220,36 220,44"/></g>
<g class="edge"><line x1="108" y1="840" x2="228" y2="40"/><polygon points="228,40 220,36 220,44"/></g>
<g class="edge"><line x1="108" y1="940" x2="228" y2="40"/><polygon points="228,40 220,36 220,44"/></g>
<g class="edge"><line x1="108" y1="1040" x2="228" y2="40"/><polygon points="228,40 220,36 220,44"/></g>
<g class="node"><rect x="20" y="20" width="88" height="40"/><text x="36" y="44" class="label">10.0.1.1</text><title>10.0.1.1</title></g>
<g class="node"><rect x="20" y="120" width="88" height="40"/><text x="36" y="144" class="label">10.0.2.1</text><title>10.0.2.1</title></g>
<g class="node"><rect x="20" y="220" width="88" height="40"/><text x="36" y="244" class="label">10.0.2.2</text><title>10.0.2.2</title></g>
<g class="node"><rect x="20" y="320" width="88" height="40"/><text x="36" y="344" class="label">10.0.3.1</text><title>10.0.3.1</title></g>
<g class="node"><rect x="20" y="420" width="88" height="40"/><text x="36" y="444" class="label">10.0.3.2</text><title>10.0.3.2</title></g>
<g class="node"><rect x="20" y="520" width="88" height="40"/><text x="36" y="544" class="label">10.0.4.1</text><title>10.0.4.1</title></g>
<g class="node"><rect x="20" y="620" width="88" height="40"/><text x="36" y="644" class="label">10.0.4.2</text><title>10.0.4.2</title></g>
<g class="node"><rect x="20" y="720" width="88" height="40"/><text x="36" y="744" class="label">10.0.5.1</text><title>10.0.5.1</title></g>
<g class="node"><rect x="20" y="820" width="88" height="40"/><text x="36" y="844" class="label">10.0.5.2</text><title>10.0.5.2</title></g>
<g class="node"><rect x="20" y="920" width="88" height="40"/><text x="36" y="944" class="label">10.0.6.1</text><title>10.0.6.1</title></g>
<g class="node"><rect x="20" y="1020" width="88" height="40"/><text x="36" y="1044" class="label">10.0.6.2</text><title>10.0.6.2</title></g>
<g class="node egress"><rect x="228" y="20" width="88" height="40"/><text x="244" y="44" class="label">10.0.1.2</text><title>10.0.1.2</title></g>
</svg>