<?xml version="1.0" standalone="no"?>
<!DOCTYPE svg PUBLIC "-//W3C//DTD SVG 20010904//EN"
 "http://www.w3.org/TR/2001/REC-SVG-20010904/DTD/svg10.dtd">
<svg version="1.0" xmlns="http://www.w3.org/2000/svg"
 width="32" height="32" viewBox="0 0 169 175"
 preserveAspectRatio="xMidYMid meet">
<metadata>
Created by potrace 1.16, written by Peter Selinger 2001-2019
</metadata>
<defs>
  <linearGradient id="ze-gradient-1" x1="0" y1="0" x2="1" y2="1" gradientUnits="objectBoundingBox">
    <stop offset="0" stop-color="#312782"/>
    <stop offset="0.5" stop-color="#0069b4"/>
    <stop offset="1" stop-color="#009ee2"/>
  </linearGradient>
  <linearGradient id="ze-gradient-2" x1="1" y1="0" x2="0" y2="1" gradientUnits="objectBoundingBox">
    <stop offset="0" stop-color="#009ee2"/>
    <stop offset="0.5" stop-color="#0069b4"/>
    <stop offset="1" stop-color="#312782"/>
  </linearGradient>
</defs>
<g transform="translate(0.000000,175.000000) scale(0.100000,-0.100000)"
stroke="none">
<path fill="url(#ze-gradient-1)" d="M1070 1550 c-106 -23 -447 -111 -600 -155 -270 -78 -260 -75 -260
-95 0 -75 223 -165 313 -126 18 7 52 21 77 31 25 10 83 35 128 57 128 58 337
98 524 98 31 0 58 5 60 10 2 7 26 6 71 -3 77 -17 80 -12 33 46 -18 23 -41 56
-50 74 -41 82 -124 100 -296 63z"/>
<path fill="url(#ze-gradient-2)" d="M904 1066 c-17 -8 -150 -26 -295 -40 -228 -24 -371 -44 -417 -61 -13
-5 17 -34 122 -119 51 -41 63 -46 90 -40 35 8 187 7 195 -1 3 -3 -34 -45 -81
-93 -132 -134 -278 -311 -278 -336 0 -3 12 -6 28 -8 24 -3 28 -8 32 -48 4 -35
9 -46 25 -49 11 -2 41 -23 67 -47 26 -24 53 -44 60 -44 23 0 111 28 205 64
144 56 280 81 357 65 49 -9 89 -9 183 0 204 19 232 14 333 -57 21 -14 20 -11
-9 27 -19 24 -52 56 -73 71 -20 15 -54 47 -74 71 -88 107 -212 116 -568 45
-127 -26 -236 -45 -245 -44 -18 4 206 231 305 310 97 77 188 124 257 132 86
11 85 28 -12 130 -83 87 -133 104 -207 72z"/>
</g>
</svg>
