<?xml version="1.0" encoding="UTF-8" standalone="no"?>
<!DOCTYPE svg PUBLIC "-//W3C//DTD SVG 1.1//EN"
 "http://www.w3.org/Graphics/SVG/1.1/DTD/svg11.dtd">
<!-- Generated by graphviz version 14.1.2 (20260124.0452)
 -->
<!-- Title: ze Pages: 1 -->
<svg width="979pt" height="1306pt"
 viewBox="0.00 0.00 979.00 1306.00" xmlns="http://www.w3.org/2000/svg" xmlns:xlink="http://www.w3.org/1999/xlink">
<g id="graph0" class="graph" transform="scale(1 1) rotate(0) translate(4 1302.25)">
<title>ze</title>
<polygon fill="white" stroke="none" points="-4,4 -4,-1302.25 974.8,-1302.25 974.8,4 -4,4"/>
<!-- external -->
<g id="node1" class="node">
<title>external</title>
<polygon fill="#ffecd2" stroke="none" points="246.3,-1261.25 246.3,-1298.25 386.3,-1298.25 386.3,-1261.25 246.3,-1261.25"/>
<polygon fill="none" stroke="black" points="246.3,-1261.25 246.3,-1298.25 386.3,-1298.25 386.3,-1261.25 246.3,-1261.25"/>
<text xml:space="preserve" text-anchor="start" x="290.42" y="-1280.75" font-family="Helvetica Neue,Helvetica,Arial,sans-serif" font-weight="bold" font-size="10.00">BGP Peers</text>
<text xml:space="preserve" text-anchor="start" x="286.3" y="-1271.7" font-family="Helvetica Neue,Helvetica,Arial,sans-serif" font-size="9.00">(TCP sessions)</text>
<polygon fill="#fff9c4" stroke="none" points="386.3,-1261.25 386.3,-1298.25 526.3,-1298.25 526.3,-1261.25 386.3,-1261.25"/>
<polygon fill="none" stroke="black" points="386.3,-1261.25 386.3,-1298.25 526.3,-1298.25 526.3,-1261.25 386.3,-1261.25"/>
<text xml:space="preserve" text-anchor="start" x="430.8" y="-1280.75" font-family="Helvetica Neue,Helvetica,Arial,sans-serif" font-weight="bold" font-size="10.00">Config File</text>
<text xml:space="preserve" text-anchor="start" x="422.92" y="-1271.7" font-family="Helvetica Neue,Helvetica,Arial,sans-serif" font-size="9.00">(YANG&#45;modeled)</text>
<polygon fill="#e8d0f0" stroke="none" points="526.3,-1261.25 526.3,-1298.25 666.3,-1298.25 666.3,-1261.25 526.3,-1261.25"/>
<polygon fill="none" stroke="black" points="526.3,-1261.25 526.3,-1298.25 666.3,-1298.25 666.3,-1261.25 526.3,-1261.25"/>
<text xml:space="preserve" text-anchor="start" x="588.05" y="-1280.75" font-family="Helvetica Neue,Helvetica,Arial,sans-serif" font-weight="bold" font-size="10.00">CLI</text>
<text xml:space="preserve" text-anchor="start" x="577.92" y="-1271.7" font-family="Helvetica Neue,Helvetica,Arial,sans-serif" font-size="9.00">(cmd/ze/)</text>
</g>
<!-- bgp -->
<g id="node2" class="node">
<title>bgp</title>
<path fill="#eaf2fb" stroke="none" d="M77.21,-726C77.21,-726 445.38,-726 445.38,-726 451.38,-726 457.38,-732 457.38,-738 457.38,-738 457.38,-1021.5 457.38,-1021.5 457.38,-1027.5 451.38,-1033.5 445.38,-1033.5 445.38,-1033.5 77.21,-1033.5 77.21,-1033.5 71.21,-1033.5 65.21,-1027.5 65.21,-1021.5 65.21,-1021.5 65.21,-738 65.21,-738 65.21,-732 71.21,-726 77.21,-726"/>
<text xml:space="preserve" text-anchor="start" x="72.21" y="-1015.15" font-family="Helvetica Neue,Helvetica,Arial,sans-serif" font-weight="bold" font-size="13.00" fill="#0d47a1"> &#160;BGP Subsystem</text>
<text xml:space="preserve" text-anchor="start" x="179.46" y="-1015.15" font-family="Helvetica Neue,Helvetica,Arial,sans-serif" font-size="10.00"> &#160;</text>
<text xml:space="preserve" text-anchor="start" x="185.46" y="-1015.15" font-family="Helvetica Neue,Helvetica,Arial,sans-serif" font-size="9.00" fill="#1565c0">(internal/plugins/bgp/)</text>
<path fill="#bbdefb" stroke="none" d="M82.21,-915.5C82.21,-915.5 258.21,-915.5 258.21,-915.5 264.21,-915.5 270.21,-921.5 270.21,-927.5 270.21,-927.5 270.21,-988.75 270.21,-988.75 270.21,-994.75 264.21,-1000.75 258.21,-1000.75 258.21,-1000.75 82.21,-1000.75 82.21,-1000.75 76.21,-1000.75 70.21,-994.75 70.21,-988.75 70.21,-988.75 70.21,-927.5 70.21,-927.5 70.21,-921.5 76.21,-915.5 82.21,-915.5"/>
<text xml:space="preserve" text-anchor="start" x="106.84" y="-977.2" font-family="Helvetica Neue,Helvetica,Arial,sans-serif" font-weight="bold" font-size="9.00" fill="#0d47a1">Peer Sessions (per&#45;peer FSM)</text>
<path fill="#90caf9" stroke="none" d="M83.21,-916.5C83.21,-916.5 124.46,-916.5 124.46,-916.5 130.46,-916.5 136.46,-922.5 136.46,-928.5 136.46,-928.5 136.46,-946.5 136.46,-946.5 136.46,-952.5 130.46,-958.5 124.46,-958.5 124.46,-958.5 83.21,-958.5 83.21,-958.5 77.21,-958.5 71.21,-952.5 71.21,-946.5 71.21,-946.5 71.21,-928.5 71.21,-928.5 71.21,-922.5 77.21,-916.5 83.21,-916.5"/>
<text xml:space="preserve" text-anchor="start" x="77.21" y="-934" font-family="Helvetica Neue,Helvetica,Arial,sans-serif" font-size="10.00">Peer 1 FSM</text>
<path fill="#90caf9" stroke="none" d="M148.46,-916.5C148.46,-916.5 189.71,-916.5 189.71,-916.5 195.71,-916.5 201.71,-922.5 201.71,-928.5 201.71,-928.5 201.71,-946.5 201.71,-946.5 201.71,-952.5 195.71,-958.5 189.71,-958.5 189.71,-958.5 148.46,-958.5 148.46,-958.5 142.46,-958.5 136.46,-952.5 136.46,-946.5 136.46,-946.5 136.46,-928.5 136.46,-928.5 136.46,-922.5 142.46,-916.5 148.46,-916.5"/>
<text xml:space="preserve" text-anchor="start" x="142.46" y="-934" font-family="Helvetica Neue,Helvetica,Arial,sans-serif" font-size="10.00">Peer 2 FSM</text>
<path fill="#90caf9" stroke="none" d="M213.71,-916.5C213.71,-916.5 257.21,-916.5 257.21,-916.5 263.21,-916.5 269.21,-922.5 269.21,-928.5 269.21,-928.5 269.21,-946.5 269.21,-946.5 269.21,-952.5 263.21,-958.5 257.21,-958.5 257.21,-958.5 213.71,-958.5 213.71,-958.5 207.71,-958.5 201.71,-952.5 201.71,-946.5 201.71,-946.5 201.71,-928.5 201.71,-928.5 201.71,-922.5 207.71,-916.5 213.71,-916.5"/>
<text xml:space="preserve" text-anchor="start" x="207.71" y="-934" font-family="Helvetica Neue,Helvetica,Arial,sans-serif" font-size="10.00">Peer N FSM</text>
<path fill="none" stroke="#1565c0" d="M82.21,-915.5C82.21,-915.5 258.21,-915.5 258.21,-915.5 264.21,-915.5 270.21,-921.5 270.21,-927.5 270.21,-927.5 270.21,-988.75 270.21,-988.75 270.21,-994.75 264.21,-1000.75 258.21,-1000.75 258.21,-1000.75 82.21,-1000.75 82.21,-1000.75 76.21,-1000.75 70.21,-994.75 70.21,-988.75 70.21,-988.75 70.21,-927.5 70.21,-927.5 70.21,-921.5 76.21,-915.5 82.21,-915.5"/>
<path fill="#e8f5e9" stroke="none" d="M290.21,-915.5C290.21,-915.5 440.38,-915.5 440.38,-915.5 446.38,-915.5 452.38,-921.5 452.38,-927.5 452.38,-927.5 452.38,-988.75 452.38,-988.75 452.38,-994.75 446.38,-1000.75 440.38,-1000.75 440.38,-1000.75 290.21,-1000.75 290.21,-1000.75 284.21,-1000.75 278.21,-994.75 278.21,-988.75 278.21,-988.75 278.21,-927.5 278.21,-927.5 278.21,-921.5 284.21,-915.5 290.21,-915.5"/>
<text xml:space="preserve" text-anchor="start" x="318.8" y="-986.2" font-family="Helvetica Neue,Helvetica,Arial,sans-serif" font-weight="bold" font-size="9.00" fill="#1b5e20">Capability Negotiation</text>
<path fill="#c8e6c9" stroke="none" d="M289.21,-946.5C289.21,-946.5 441.38,-946.5 441.38,-946.5 446.38,-946.5 451.38,-951.5 451.38,-956.5 451.38,-956.5 451.38,-966.5 451.38,-966.5 451.38,-971.5 446.38,-976.5 441.38,-976.5 441.38,-976.5 289.21,-976.5 289.21,-976.5 284.21,-976.5 279.21,-971.5 279.21,-966.5 279.21,-966.5 279.21,-956.5 279.21,-956.5 279.21,-951.5 284.21,-946.5 289.21,-946.5"/>
<text xml:space="preserve" text-anchor="start" x="312.8" y="-962" font-family="Helvetica Neue,Helvetica,Arial,sans-serif" font-size="10.00">Negotiated Capabilities</text>
<text xml:space="preserve" text-anchor="start" x="301.55" y="-953.9" font-family="Helvetica Neue,Helvetica,Arial,sans-serif" font-size="8.00">(ASN4 · AddPath · ExtNH · ExtMsg)</text>
<path fill="#a5d6a7" stroke="none" d="M289.21,-916.5C289.21,-916.5 344.05,-916.5 344.05,-916.5 349.05,-916.5 354.05,-921.5 354.05,-926.5 354.05,-926.5 354.05,-936.5 354.05,-936.5 354.05,-941.5 349.05,-946.5 344.05,-946.5 344.05,-946.5 289.21,-946.5 289.21,-946.5 284.21,-946.5 279.21,-941.5 279.21,-936.5 279.21,-936.5 279.21,-926.5 279.21,-926.5 279.21,-921.5 284.21,-916.5 289.21,-916.5"/>
<text xml:space="preserve" text-anchor="start" x="294.51" y="-932" font-family="Helvetica Neue,Helvetica,Arial,sans-serif" font-size="10.00">ContextID</text>
<text xml:space="preserve" text-anchor="start" x="289.26" y="-923.9" font-family="Helvetica Neue,Helvetica,Arial,sans-serif" font-size="8.00">(zero&#45;copy key)</text>
<path fill="#a5d6a7" stroke="none" d="M364.05,-916.5C364.05,-916.5 441.38,-916.5 441.38,-916.5 446.38,-916.5 451.38,-921.5 451.38,-926.5 451.38,-926.5 451.38,-936.5 451.38,-936.5 451.38,-941.5 446.38,-946.5 441.38,-946.5 441.38,-946.5 364.05,-946.5 364.05,-946.5 359.05,-946.5 354.05,-941.5 354.05,-936.5 354.05,-936.5 354.05,-926.5 354.05,-926.5 354.05,-921.5 359.05,-916.5 364.05,-916.5"/>
<text xml:space="preserve" text-anchor="start" x="364.09" y="-932" font-family="Helvetica Neue,Helvetica,Arial,sans-serif" font-size="10.00">EncodingContext</text>
<text xml:space="preserve" text-anchor="start" x="375.71" y="-923.9" font-family="Helvetica Neue,Helvetica,Arial,sans-serif" font-size="8.00">(wire encoding)</text>
<path fill="none" stroke="#2e7d32" d="M290.21,-915.5C290.21,-915.5 440.38,-915.5 440.38,-915.5 446.38,-915.5 452.38,-921.5 452.38,-927.5 452.38,-927.5 452.38,-988.75 452.38,-988.75 452.38,-994.75 446.38,-1000.75 440.38,-1000.75 440.38,-1000.75 290.21,-1000.75 290.21,-1000.75 284.21,-1000.75 278.21,-994.75 278.21,-988.75 278.21,-988.75 278.21,-927.5 278.21,-927.5 278.21,-921.5 284.21,-915.5 290.21,-915.5"/>
<path fill="#e0f2f1" stroke="none" d="M82.21,-844.25C82.21,-844.25 440.38,-844.25 440.38,-844.25 446.38,-844.25 452.38,-850.25 452.38,-856.25 452.38,-856.25 452.38,-895.5 452.38,-895.5 452.38,-901.5 446.38,-907.5 440.38,-907.5 440.38,-907.5 82.21,-907.5 82.21,-907.5 76.21,-907.5 70.21,-901.5 70.21,-895.5 70.21,-895.5 70.21,-856.25 70.21,-856.25 70.21,-850.25 76.21,-844.25 82.21,-844.25"/>
<text xml:space="preserve" text-anchor="start" x="238.42" y="-892.95" font-family="Helvetica Neue,Helvetica,Arial,sans-serif" font-weight="bold" font-size="9.00" fill="#004d40">Wire Layer</text>
<path fill="#b2dfdb" stroke="none" d="M83.21,-845.25C83.21,-845.25 154.94,-845.25 154.94,-845.25 160.94,-845.25 166.94,-851.25 166.94,-857.25 166.94,-857.25 166.94,-871.25 166.94,-871.25 166.94,-877.25 160.94,-883.25 154.94,-883.25 154.94,-883.25 83.21,-883.25 83.21,-883.25 77.21,-883.25 71.21,-877.25 71.21,-871.25 71.21,-871.25 71.21,-857.25 71.21,-857.25 71.21,-851.25 77.21,-845.25 83.21,-845.25"/>
<text xml:space="preserve" text-anchor="start" x="86.45" y="-864.75" font-family="Helvetica Neue,Helvetica,Arial,sans-serif" font-size="10.00">Session Buffer</text>
<text xml:space="preserve" text-anchor="start" x="87.95" y="-856.65" font-family="Helvetica Neue,Helvetica,Arial,sans-serif" font-size="8.00">(pooled 4K / 64K)</text>
<path fill="#b2dfdb" stroke="none" d="M178.94,-845.25C178.94,-845.25 312.16,-845.25 312.16,-845.25 318.16,-845.25 324.16,-851.25 324.16,-857.25 324.16,-857.25 324.16,-871.25 324.16,-871.25 324.16,-877.25 318.16,-883.25 312.16,-883.25 312.16,-883.25 178.94,-883.25 178.94,-883.25 172.94,-883.25 166.94,-877.25 166.94,-871.25 166.94,-871.25 166.94,-857.25 166.94,-857.25 166.94,-851.25 172.94,-845.25 178.94,-845.25"/>
<text xml:space="preserve" text-anchor="start" x="210.67" y="-864.75" font-family="Helvetica Neue,Helvetica,Arial,sans-serif" font-size="10.00">Message Parse</text>
<text xml:space="preserve" text-anchor="start" x="182.17" y="-856.65" font-family="Helvetica Neue,Helvetica,Arial,sans-serif" font-size="8.00">(OPEN · UPDATE · NOTIFICATION)</text>
<path fill="#80cbc4" stroke="none" d="M336.16,-845.25C336.16,-845.25 439.38,-845.25 439.38,-845.25 445.38,-845.25 451.38,-851.25 451.38,-857.25 451.38,-857.25 451.38,-871.25 451.38,-871.25 451.38,-877.25 445.38,-883.25 439.38,-883.25 439.38,-883.25 336.16,-883.25 336.16,-883.25 330.16,-883.25 324.16,-877.25 324.16,-871.25 324.16,-871.25 324.16,-857.25 324.16,-857.25 324.16,-851.25 330.16,-845.25 336.16,-845.25"/>
<text xml:space="preserve" text-anchor="start" x="359.27" y="-868.75" font-family="Helvetica Neue,Helvetica,Arial,sans-serif" font-weight="bold" font-size="10.00">WireUpdate</text>
<text xml:space="preserve" text-anchor="start" x="339.39" y="-860.65" font-family="Helvetica Neue,Helvetica,Arial,sans-serif" font-size="8.00">(lazy&#45;parsed UPDATE body</text>
<text xml:space="preserve" text-anchor="start" x="353.27" y="-852.65" font-family="Helvetica Neue,Helvetica,Arial,sans-serif" font-size="8.00">zero&#45;copy iterators)</text>
<path fill="none" stroke="#00695c" d="M82.21,-844.25C82.21,-844.25 440.38,-844.25 440.38,-844.25 446.38,-844.25 452.38,-850.25 452.38,-856.25 452.38,-856.25 452.38,-895.5 452.38,-895.5 452.38,-901.5 446.38,-907.5 440.38,-907.5 440.38,-907.5 82.21,-907.5 82.21,-907.5 76.21,-907.5 70.21,-901.5 70.21,-895.5 70.21,-895.5 70.21,-856.25 70.21,-856.25 70.21,-850.25 76.21,-844.25 82.21,-844.25"/>
<path fill="#e8eaf6" stroke="none" d="M82.21,-735C82.21,-735 258.21,-735 258.21,-735 264.21,-735 270.21,-741 270.21,-747 270.21,-747 270.21,-824.25 270.21,-824.25 270.21,-830.25 264.21,-836.25 258.21,-836.25 258.21,-836.25 82.21,-836.25 82.21,-836.25 76.21,-836.25 70.21,-830.25 70.21,-824.25 70.21,-824.25 70.21,-747 70.21,-747 70.21,-741 76.21,-735 82.21,-735"/>
<text xml:space="preserve" text-anchor="start" x="127.09" y="-821.7" font-family="Helvetica Neue,Helvetica,Arial,sans-serif" font-weight="bold" font-size="9.00" fill="#1a237e">Reactor (event loop)</text>
<path fill="#c5cae9" stroke="none" d="M83.21,-774C83.21,-774 257.21,-774 257.21,-774 263.21,-774 269.21,-780 269.21,-786 269.21,-786 269.21,-800 269.21,-800 269.21,-806 263.21,-812 257.21,-812 257.21,-812 83.21,-812 83.21,-812 77.21,-812 71.21,-806 71.21,-800 71.21,-800 71.21,-786 71.21,-786 71.21,-780 77.21,-774 83.21,-774"/>
<text xml:space="preserve" text-anchor="start" x="150.71" y="-797.5" font-family="Helvetica Neue,Helvetica,Arial,sans-serif" font-weight="bold" font-size="10.00">Reactor</text>
<text xml:space="preserve" text-anchor="start" x="136.09" y="-789.4" font-family="Helvetica Neue,Helvetica,Arial,sans-serif" font-size="8.00">(peer management</text>
<text xml:space="preserve" text-anchor="start" x="143.21" y="-781.4" font-family="Helvetica Neue,Helvetica,Arial,sans-serif" font-size="8.00">event dispatch)</text>
<path fill="#9fa8da" stroke="none" d="M83.21,-736C83.21,-736 257.21,-736 257.21,-736 263.21,-736 269.21,-742 269.21,-748 269.21,-748 269.21,-762 269.21,-762 269.21,-768 263.21,-774 257.21,-774 257.21,-774 83.21,-774 83.21,-774 77.21,-774 71.21,-768 71.21,-762 71.21,-762 71.21,-748 71.21,-748 71.21,-742 77.21,-736 83.21,-736"/>
<text xml:space="preserve" text-anchor="start" x="142.46" y="-759.5" font-family="Helvetica Neue,Helvetica,Arial,sans-serif" font-weight="bold" font-size="10.00">BGP Cache</text>
<text xml:space="preserve" text-anchor="start" x="129.71" y="-751.4" font-family="Helvetica Neue,Helvetica,Arial,sans-serif" font-size="8.00">(WireUpdate by msg&#45;id</text>
<text xml:space="preserve" text-anchor="start" x="130.84" y="-743.4" font-family="Helvetica Neue,Helvetica,Arial,sans-serif" font-size="8.00">for zero&#45;copy forward)</text>
<path fill="none" stroke="#283593" d="M82.21,-735C82.21,-735 258.21,-735 258.21,-735 264.21,-735 270.21,-741 270.21,-747 270.21,-747 270.21,-824.25 270.21,-824.25 270.21,-830.25 264.21,-836.25 258.21,-836.25 258.21,-836.25 82.21,-836.25 82.21,-836.25 76.21,-836.25 70.21,-830.25 70.21,-824.25 70.21,-824.25 70.21,-747 70.21,-747 70.21,-741 76.21,-735 82.21,-735"/>
<path fill="#ede7f6" stroke="none" d="M290.21,-735C290.21,-735 440.38,-735 440.38,-735 446.38,-735 452.38,-741 452.38,-747 452.38,-747 452.38,-824.25 452.38,-824.25 452.38,-830.25 446.38,-836.25 440.38,-836.25 440.38,-836.25 290.21,-836.25 290.21,-836.25 284.21,-836.25 278.21,-830.25 278.21,-824.25 278.21,-824.25 278.21,-747 278.21,-747 278.21,-741 284.21,-735 290.21,-735"/>
<text xml:space="preserve" text-anchor="start" x="330.05" y="-821.7" font-family="Helvetica Neue,Helvetica,Arial,sans-serif" font-weight="bold" font-size="9.00" fill="#311b92">EventDispatcher</text>
<path fill="#d1c4e9" stroke="none" d="M291.21,-774C291.21,-774 439.38,-774 439.38,-774 445.38,-774 451.38,-780 451.38,-786 451.38,-786 451.38,-800 451.38,-800 451.38,-806 445.38,-812 439.38,-812 439.38,-812 291.21,-812 291.21,-812 285.21,-812 279.21,-806 279.21,-800 279.21,-800 279.21,-786 279.21,-786 279.21,-780 285.21,-774 291.21,-774"/>
<text xml:space="preserve" text-anchor="start" x="318.8" y="-797.5" font-family="Helvetica Neue,Helvetica,Arial,sans-serif" font-weight="bold" font-size="10.00">Type&#45;Safe Dispatch</text>
<text xml:space="preserve" text-anchor="start" x="318.05" y="-789.4" font-family="Helvetica Neue,Helvetica,Arial,sans-serif" font-size="8.00">(reactor → event functions</text>
<text xml:space="preserve" text-anchor="start" x="328.92" y="-781.4" font-family="Helvetica Neue,Helvetica,Arial,sans-serif" font-size="8.00">no any&#45;typed hooks)</text>
<path fill="#d1c4e9" stroke="none" d="M291.21,-736C291.21,-736 439.38,-736 439.38,-736 445.38,-736 451.38,-742 451.38,-748 451.38,-748 451.38,-762 451.38,-762 451.38,-768 445.38,-774 439.38,-774 439.38,-774 291.21,-774 291.21,-774 285.21,-774 279.21,-768 279.21,-762 279.21,-762 279.21,-748 279.21,-748 279.21,-742 285.21,-736 291.21,-736"/>
<text xml:space="preserve" text-anchor="start" x="331.92" y="-759.5" font-family="Helvetica Neue,Helvetica,Arial,sans-serif" font-size="10.00">JSON Encoder</text>
<text xml:space="preserve" text-anchor="start" x="335.3" y="-751.4" font-family="Helvetica Neue,Helvetica,Arial,sans-serif" font-size="8.00">(events → JSON</text>
<text xml:space="preserve" text-anchor="start" x="328.92" y="-743.4" font-family="Helvetica Neue,Helvetica,Arial,sans-serif" font-size="8.00">+ base64 wire bytes)</text>
<path fill="none" stroke="#4527a0" d="M290.21,-735C290.21,-735 440.38,-735 440.38,-735 446.38,-735 452.38,-741 452.38,-747 452.38,-747 452.38,-824.25 452.38,-824.25 452.38,-830.25 446.38,-836.25 440.38,-836.25 440.38,-836.25 290.21,-836.25 290.21,-836.25 284.21,-836.25 278.21,-830.25 278.21,-824.25 278.21,-824.25 278.21,-747 278.21,-747 278.21,-741 284.21,-735 290.21,-735"/>
<path fill="none" stroke="#1565c0" stroke-width="2" d="M77.21,-726C77.21,-726 445.38,-726 445.38,-726 451.38,-726 457.38,-732 457.38,-738 457.38,-738 457.38,-1021.5 457.38,-1021.5 457.38,-1027.5 451.38,-1033.5 445.38,-1033.5 445.38,-1033.5 77.21,-1033.5 77.21,-1033.5 71.21,-1033.5 65.21,-1027.5 65.21,-1021.5 65.21,-1021.5 65.21,-738 65.21,-738 65.21,-732 71.21,-726 77.21,-726"/>
</g>
<!-- external&#45;&gt;bgp -->
<g id="edge1" class="edge">
<title>external:peers&#45;&gt;bgp:fsm</title>
<path fill="none" stroke="#bf8040" stroke-width="2" d="M245.3,-1279.75C78.94,-1279.75 -91.42,-955.31 57.41,-938.2"/>
<polygon fill="#bf8040" stroke="#bf8040" stroke-width="2" points="57.4,-941.71 67.19,-937.67 57.01,-934.72 57.4,-941.71"/>
<text xml:space="preserve" text-anchor="middle" x="95" y="-1144.95" font-family="Helvetica Neue,Helvetica,Arial,sans-serif" font-size="9.00">TCP</text>
</g>
<!-- config -->
<g id="node3" class="node">
<title>config</title>
<path fill="#fffde7" stroke="none" d="M364.17,-1104.75C364.17,-1104.75 548.42,-1104.75 548.42,-1104.75 554.42,-1104.75 560.42,-1110.75 560.42,-1116.75 560.42,-1116.75 560.42,-1179 560.42,-1179 560.42,-1185 554.42,-1191 548.42,-1191 548.42,-1191 364.17,-1191 364.17,-1191 358.17,-1191 352.17,-1185 352.17,-1179 352.17,-1179 352.17,-1116.75 352.17,-1116.75 352.17,-1110.75 358.17,-1104.75 364.17,-1104.75"/>
<text xml:space="preserve" text-anchor="start" x="359.17" y="-1174.55" font-family="Helvetica Neue,Helvetica,Arial,sans-serif" font-weight="bold" font-size="11.00" fill="#f57f17"> &#160;Config Pipeline</text>
<text xml:space="preserve" text-anchor="start" x="445.42" y="-1174.55" font-family="Helvetica Neue,Helvetica,Arial,sans-serif" font-size="10.00"> &#160;</text>
<text xml:space="preserve" text-anchor="start" x="451.42" y="-1174.55" font-family="Helvetica Neue,Helvetica,Arial,sans-serif" font-size="9.00" fill="#f9a825">(internal/config/)</text>
<path fill="#fff9c4" stroke="none" d="M361.17,-1139.75C361.17,-1139.75 551.42,-1139.75 551.42,-1139.75 555.42,-1139.75 559.42,-1143.75 559.42,-1147.75 559.42,-1147.75 559.42,-1155.75 559.42,-1155.75 559.42,-1159.75 555.42,-1163.75 551.42,-1163.75 551.42,-1163.75 361.17,-1163.75 361.17,-1163.75 357.17,-1163.75 353.17,-1159.75 353.17,-1155.75 353.17,-1155.75 353.17,-1147.75 353.17,-1147.75 353.17,-1143.75 357.17,-1139.75 361.17,-1139.75"/>
<text xml:space="preserve" text-anchor="start" x="383.17" y="-1148.25" font-family="Helvetica Neue,Helvetica,Arial,sans-serif" font-size="10.00">File → Tree → ResolveBGPTree()</text>
<path fill="#fff9c4" stroke="none" d="M363.17,-1109.75C363.17,-1109.75 427.17,-1109.75 427.17,-1109.75 432.17,-1109.75 437.17,-1114.75 437.17,-1119.75 437.17,-1119.75 437.17,-1129.75 437.17,-1129.75 437.17,-1134.75 432.17,-1139.75 427.17,-1139.75 427.17,-1139.75 363.17,-1139.75 363.17,-1139.75 358.17,-1139.75 353.17,-1134.75 353.17,-1129.75 353.17,-1129.75 353.17,-1119.75 353.17,-1119.75 353.17,-1114.75 358.17,-1109.75 363.17,-1109.75"/>
<text xml:space="preserve" text-anchor="start" x="359.17" y="-1125.25" font-family="Helvetica Neue,Helvetica,Arial,sans-serif" font-size="10.00">PeersFromTree()</text>
<text xml:space="preserve" text-anchor="start" x="365.55" y="-1117.15" font-family="Helvetica Neue,Helvetica,Arial,sans-serif" font-size="8.00">(peer definitions)</text>
<path fill="#fff9c4" stroke="none" d="M447.17,-1109.75C447.17,-1109.75 549.42,-1109.75 549.42,-1109.75 554.42,-1109.75 559.42,-1114.75 559.42,-1119.75 559.42,-1119.75 559.42,-1129.75 559.42,-1129.75 559.42,-1134.75 554.42,-1139.75 549.42,-1139.75 549.42,-1139.75 447.17,-1139.75 447.17,-1139.75 442.17,-1139.75 437.17,-1134.75 437.17,-1129.75 437.17,-1129.75 437.17,-1119.75 437.17,-1119.75 437.17,-1114.75 442.17,-1109.75 447.17,-1109.75"/>
<text xml:space="preserve" text-anchor="start" x="443.17" y="-1125.25" font-family="Helvetica Neue,Helvetica,Arial,sans-serif" font-size="10.00">ExtractPluginsFromTree()</text>
<text xml:space="preserve" text-anchor="start" x="460.8" y="-1117.15" font-family="Helvetica Neue,Helvetica,Arial,sans-serif" font-size="8.00">(plugin configuration)</text>
<path fill="none" stroke="#f9a825" stroke-width="2" d="M364.17,-1104.75C364.17,-1104.75 548.42,-1104.75 548.42,-1104.75 554.42,-1104.75 560.42,-1110.75 560.42,-1116.75 560.42,-1116.75 560.42,-1179 560.42,-1179 560.42,-1185 554.42,-1191 548.42,-1191 548.42,-1191 364.17,-1191 364.17,-1191 358.17,-1191 352.17,-1185 352.17,-1179 352.17,-1179 352.17,-1116.75 352.17,-1116.75 352.17,-1110.75 358.17,-1104.75 364.17,-1104.75"/>
</g>
<!-- external&#45;&gt;config -->
<g id="edge2" class="edge">
<title>external:config&#45;&gt;config:cfg</title>
<path fill="none" stroke="#c6a700" stroke-width="1.5" d="M456.3,-1261.25C456.3,-1206.04 532.85,-1240.39 559.42,-1192 565.07,-1181.71 571.45,-1167.59 570.1,-1159.1"/>
<polygon fill="#c6a700" stroke="#c6a700" stroke-width="1.5" points="572.31,-1156.38 562.23,-1153.12 568.08,-1161.96 572.31,-1156.38"/>
<text xml:space="preserve" text-anchor="middle" x="523.64" y="-1223.7" font-family="Helvetica Neue,Helvetica,Arial,sans-serif" font-size="9.00">YANG</text>
</g>
<!-- infra -->
<g id="node4" class="node">
<title>infra</title>
<path fill="#fff3e0" stroke="none" d="M443.3,-556.5C443.3,-556.5 783.3,-556.5 783.3,-556.5 789.3,-556.5 795.3,-562.5 795.3,-568.5 795.3,-568.5 795.3,-642.75 795.3,-642.75 795.3,-648.75 789.3,-654.75 783.3,-654.75 783.3,-654.75 443.3,-654.75 443.3,-654.75 437.3,-654.75 431.3,-648.75 431.3,-642.75 431.3,-642.75 431.3,-568.5 431.3,-568.5 431.3,-562.5 437.3,-556.5 443.3,-556.5"/>
<text xml:space="preserve" text-anchor="start" x="438.3" y="-638.3" font-family="Helvetica Neue,Helvetica,Arial,sans-serif" font-weight="bold" font-size="11.00" fill="#e65100"> &#160;Plugin Infrastructure</text>
<text xml:space="preserve" text-anchor="start" x="553.05" y="-638.3" font-family="Helvetica Neue,Helvetica,Arial,sans-serif" font-size="10.00"> &#160;</text>
<text xml:space="preserve" text-anchor="start" x="559.05" y="-638.3" font-family="Helvetica Neue,Helvetica,Arial,sans-serif" font-size="9.00" fill="#e65100">(internal/plugin/)</text>
<path fill="#ffe0b2" stroke="none" d="M444.3,-561.5C444.3,-561.5 499.8,-561.5 499.8,-561.5 505.8,-561.5 511.8,-567.5 511.8,-573.5 511.8,-573.5 511.8,-615.5 511.8,-615.5 511.8,-621.5 505.8,-627.5 499.8,-627.5 499.8,-627.5 444.3,-627.5 444.3,-627.5 438.3,-627.5 432.3,-621.5 432.3,-615.5 432.3,-615.5 432.3,-573.5 432.3,-573.5 432.3,-567.5 438.3,-561.5 444.3,-561.5"/>
<text xml:space="preserve" text-anchor="start" x="438.3" y="-595" font-family="Helvetica Neue,Helvetica,Arial,sans-serif" font-size="10.00">Plugin Registry</text>
<text xml:space="preserve" text-anchor="start" x="442.05" y="-586.9" font-family="Helvetica Neue,Helvetica,Arial,sans-serif" font-size="8.00">(init() registration)</text>
<path fill="#ffe0b2" stroke="none" d="M523.8,-561.5C523.8,-561.5 590.55,-561.5 590.55,-561.5 596.55,-561.5 602.55,-567.5 602.55,-573.5 602.55,-573.5 602.55,-615.5 602.55,-615.5 602.55,-621.5 596.55,-627.5 590.55,-627.5 590.55,-627.5 523.8,-627.5 523.8,-627.5 517.8,-627.5 511.8,-621.5 511.8,-615.5 511.8,-615.5 511.8,-573.5 511.8,-573.5 511.8,-567.5 517.8,-561.5 523.8,-561.5"/>
<text xml:space="preserve" text-anchor="start" x="517.8" y="-599" font-family="Helvetica Neue,Helvetica,Arial,sans-serif" font-size="10.00">Process Manager</text>
<text xml:space="preserve" text-anchor="start" x="526.05" y="-590.9" font-family="Helvetica Neue,Helvetica,Arial,sans-serif" font-size="8.00">(spawn · respawn</text>
<text xml:space="preserve" text-anchor="start" x="532.05" y="-582.9" font-family="Helvetica Neue,Helvetica,Arial,sans-serif" font-size="8.00">backpressure)</text>
<path fill="#ffcc80" stroke="none" d="M614.55,-561.5C614.55,-561.5 665.55,-561.5 665.55,-561.5 671.55,-561.5 677.55,-567.5 677.55,-573.5 677.55,-573.5 677.55,-615.5 677.55,-615.5 677.55,-621.5 671.55,-627.5 665.55,-627.5 665.55,-627.5 614.55,-627.5 614.55,-627.5 608.55,-627.5 602.55,-621.5 602.55,-615.5 602.55,-615.5 602.55,-573.5 602.55,-573.5 602.55,-567.5 608.55,-561.5 614.55,-561.5"/>
<text xml:space="preserve" text-anchor="start" x="630.3" y="-595" font-family="Helvetica Neue,Helvetica,Arial,sans-serif" font-weight="bold" font-size="10.00">Hub</text>
<text xml:space="preserve" text-anchor="start" x="608.55" y="-586.9" font-family="Helvetica Neue,Helvetica,Arial,sans-serif" font-size="8.00">(message routing)</text>
<path fill="#ffcc80" stroke="none" d="M692.21,-595.5C692.21,-595.5 779.63,-595.5 779.63,-595.5 783.96,-595.5 788.3,-599.83 788.3,-604.17 788.3,-604.17 788.3,-612.83 788.3,-612.83 788.3,-617.17 783.96,-621.5 779.63,-621.5 779.63,-621.5 692.21,-621.5 692.21,-621.5 687.88,-621.5 683.55,-617.17 683.55,-612.83 683.55,-612.83 683.55,-604.17 683.55,-604.17 683.55,-599.83 687.88,-595.5 692.21,-595.5"/>
<text xml:space="preserve" text-anchor="start" x="710.42" y="-609" font-family="Helvetica Neue,Helvetica,Arial,sans-serif" font-size="10.00">Plugin SDK</text>
<text xml:space="preserve" text-anchor="start" x="687.55" y="-600.9" font-family="Helvetica Neue,Helvetica,Arial,sans-serif" font-size="8.00">(MuxConn · TextMuxConn)</text>
<path fill="#ffcc80" stroke="none" d="M692.21,-567.5C692.21,-567.5 779.63,-567.5 779.63,-567.5 783.96,-567.5 788.3,-571.83 788.3,-576.17 788.3,-576.17 788.3,-584.83 788.3,-584.83 788.3,-589.17 783.96,-593.5 779.63,-593.5 779.63,-593.5 692.21,-593.5 692.21,-593.5 687.88,-593.5 683.55,-589.17 683.55,-584.83 683.55,-584.83 683.55,-576.17 683.55,-576.17 683.55,-571.83 687.88,-567.5 692.21,-567.5"/>
<text xml:space="preserve" text-anchor="start" x="708.55" y="-581" font-family="Helvetica Neue,Helvetica,Arial,sans-serif" font-size="10.00">DirectBridge</text>
<text xml:space="preserve" text-anchor="start" x="690.92" y="-572.9" font-family="Helvetica Neue,Helvetica,Arial,sans-serif" font-size="8.00">(internal: bypass sockets)</text>
<path fill="none" stroke="#e65100" stroke-width="2" d="M443.3,-556.5C443.3,-556.5 783.3,-556.5 783.3,-556.5 789.3,-556.5 795.3,-562.5 795.3,-568.5 795.3,-568.5 795.3,-642.75 795.3,-642.75 795.3,-648.75 789.3,-654.75 783.3,-654.75 783.3,-654.75 443.3,-654.75 443.3,-654.75 437.3,-654.75 431.3,-648.75 431.3,-642.75 431.3,-642.75 431.3,-568.5 431.3,-568.5 431.3,-562.5 437.3,-556.5 443.3,-556.5"/>
</g>
<!-- external&#45;&gt;infra -->
<g id="edge3" class="edge">
<title>external:cli&#45;&gt;infra:hub</title>
<path fill="none" stroke="#7b1fa2" stroke-dasharray="5,2" d="M667.3,-1279.75C757.02,-1279.75 722.36,-777.14 709.3,-725 701.43,-693.59 684.32,-661.47 669.08,-637.08"/>
<polygon fill="#7b1fa2" stroke="#7b1fa2" points="672.08,-635.27 663.73,-628.74 666.18,-639.04 672.08,-635.27"/>
<text xml:space="preserve" text-anchor="middle" x="733.58" y="-1066.2" font-family="Helvetica Neue,Helvetica,Arial,sans-serif" font-size="9.00">IPC</text>
</g>
<!-- bgp&#45;&gt;infra -->
<g id="edge4" class="edge">
<title>bgp:dispatcher&#45;&gt;infra:hub</title>
<path fill="none" stroke="#c62828" stroke-width="3" d="M452.38,-793C488.36,-793 472.97,-752.39 496.3,-725 525.07,-691.21 562.44,-657.81 591.86,-633.39"/>
<polygon fill="#c62828" stroke="#c62828" stroke-width="3" points="593.69,-636.42 599.2,-627.37 589.25,-631 593.69,-636.42"/>
<text xml:space="preserve" text-anchor="start" x="532.66" y="-688.45" font-family="Helvetica Neue,Helvetica,Arial,sans-serif" font-weight="bold" font-size="9.00" fill="#c62828">formatted events ↓</text>
</g>
<!-- config&#45;&gt;bgp -->
<g id="edge5" class="edge">
<title>config:peers&#45;&gt;bgp:reactor</title>
<path fill="none" stroke="#f9a825" stroke-width="1.5" stroke-dasharray="5,2" d="M352.17,-1124.75C280.21,-1124.75 270.98,-1084.96 202.3,-1063.5 145.34,-1045.7 108.67,-1080.95 71.21,-1034.5 6.54,-954.29 -33.8,-805.53 58.03,-793.74"/>
<polygon fill="#f9a825" stroke="#f9a825" stroke-width="1.5" points="58.18,-797.24 67.95,-793.14 57.75,-790.25 58.18,-797.24"/>
<text xml:space="preserve" text-anchor="start" x="227.98" y="-1066.2" font-family="Helvetica Neue,Helvetica,Arial,sans-serif" font-size="9.00" fill="#f57f17">peer definitions</text>
</g>
<!-- config&#45;&gt;infra -->
<g id="edge6" class="edge">
<title>config:plugins&#45;&gt;infra</title>
<path fill="none" stroke="#f9a825" stroke-width="1.5" stroke-dasharray="5,2" d="M560.42,-1124.75C756.37,-1124.75 551.97,-877.3 588.3,-684.75 589.36,-679.1 590.71,-673.29 592.24,-667.51"/>
<polygon fill="#f9a825" stroke="#f9a825" stroke-width="1.5" points="595.59,-668.51 594.94,-657.93 588.85,-666.6 595.59,-668.51"/>
<text xml:space="preserve" text-anchor="start" x="645.09" y="-876.83" font-family="Helvetica Neue,Helvetica,Arial,sans-serif" font-size="9.00" fill="#f57f17">plugin config</text>
</g>
<!-- boundary -->
<g id="node5" class="node">
<title>boundary</title>
<path fill="#ffebee" stroke="none" d="M498.55,-445.25C498.55,-445.25 728.05,-445.25 728.05,-445.25 734.05,-445.25 740.05,-451.25 740.05,-457.25 740.05,-457.25 740.05,-473.25 740.05,-473.25 740.05,-479.25 734.05,-485.25 728.05,-485.25 728.05,-485.25 498.55,-485.25 498.55,-485.25 492.55,-485.25 486.55,-479.25 486.55,-473.25 486.55,-473.25 486.55,-457.25 486.55,-457.25 486.55,-451.25 492.55,-445.25 498.55,-445.25"/>
<text xml:space="preserve" text-anchor="start" x="547.3" y="-465.85" font-family="Helvetica Neue,Helvetica,Arial,sans-serif" font-weight="bold" font-size="12.00" fill="#b71c1c">PROCESS &#160;BOUNDARY</text>
<text xml:space="preserve" text-anchor="start" x="495.55" y="-455.75" font-family="Helvetica Neue,Helvetica,Arial,sans-serif" font-size="10.00"> &#160;</text>
<text xml:space="preserve" text-anchor="start" x="501.55" y="-455.75" font-family="Helvetica Neue,Helvetica,Arial,sans-serif" font-size="9.00" fill="#c62828">Unix socket pairs &#160;· &#160;JSON events (↓) &#160;· &#160;Text commands (↑)</text>
<path fill="none" stroke="#c62828" stroke-width="2" d="M498.55,-445.25C498.55,-445.25 728.05,-445.25 728.05,-445.25 734.05,-445.25 740.05,-451.25 740.05,-457.25 740.05,-457.25 740.05,-473.25 740.05,-473.25 740.05,-479.25 734.05,-485.25 728.05,-485.25 728.05,-485.25 498.55,-485.25 498.55,-485.25 492.55,-485.25 486.55,-479.25 486.55,-473.25 486.55,-473.25 486.55,-457.25 486.55,-457.25 486.55,-451.25 492.55,-445.25 498.55,-445.25"/>
</g>
<!-- infra&#45;&gt;boundary -->
<g id="edge7" class="edge">
<title>infra&#45;&gt;boundary</title>
<path fill="none" stroke="#e65100" stroke-width="2" d="M613.3,-555.84C613.3,-537.02 613.3,-515.99 613.3,-499.04"/>
<polygon fill="#e65100" stroke="#e65100" stroke-width="2" points="616.8,-499.2 613.3,-489.2 609.8,-499.2 616.8,-499.2"/>
<text xml:space="preserve" text-anchor="start" x="613.3" y="-518.95" font-family="Helvetica Neue,Helvetica,Arial,sans-serif" font-weight="bold" font-size="9.00" fill="#e65100">JSON ↓ + base64 wire bytes</text>
</g>
<!-- plugins -->
<g id="node6" class="node">
<title>plugins</title>
<path fill="#f3e5f5" stroke="none" d="M531.8,-183C531.8,-183 876.8,-183 876.8,-183 882.8,-183 888.8,-189 888.8,-195 888.8,-195 888.8,-362 888.8,-362 888.8,-368 882.8,-374 876.8,-374 876.8,-374 531.8,-374 531.8,-374 525.8,-374 519.8,-368 519.8,-362 519.8,-362 519.8,-195 519.8,-195 519.8,-189 525.8,-183 531.8,-183"/>
<text xml:space="preserve" text-anchor="start" x="526.8" y="-355.65" font-family="Helvetica Neue,Helvetica,Arial,sans-serif" font-weight="bold" font-size="13.00" fill="#6a1b9a"> &#160;Plugins</text>
<text xml:space="preserve" text-anchor="start" x="579.3" y="-355.65" font-family="Helvetica Neue,Helvetica,Arial,sans-serif" font-size="13.00" fill="#6a1b9a"> &#160;</text>
<text xml:space="preserve" text-anchor="start" x="586.8" y="-355.65" font-family="Helvetica Neue,Helvetica,Arial,sans-serif" font-size="9.00" fill="#6a1b9a">(Go · Python · Rust)</text>
<path fill="#e1bee7" stroke="none" d="M544.8,-200C544.8,-200 680.3,-200 680.3,-200 686.3,-200 692.3,-206 692.3,-212 692.3,-212 692.3,-321.25 692.3,-321.25 692.3,-327.25 686.3,-333.25 680.3,-333.25 680.3,-333.25 544.8,-333.25 544.8,-333.25 538.8,-333.25 532.8,-327.25 532.8,-321.25 532.8,-321.25 532.8,-212 532.8,-212 532.8,-206 538.8,-200 544.8,-200"/>
<text xml:space="preserve" text-anchor="start" x="545.42" y="-318.7" font-family="Helvetica Neue,Helvetica,Arial,sans-serif" font-weight="bold" font-size="9.00" fill="#4a148c">bgp&#45;rib &#160;(route storage + dedup)</text>
<path fill="#ce93d8" stroke="none" d="M543.8,-279C543.8,-279 681.3,-279 681.3,-279 686.3,-279 691.3,-284 691.3,-289 691.3,-289 691.3,-299 691.3,-299 691.3,-304 686.3,-309 681.3,-309 681.3,-309 543.8,-309 543.8,-309 538.8,-309 533.8,-304 533.8,-299 533.8,-299 533.8,-289 533.8,-289 533.8,-284 538.8,-279 543.8,-279"/>
<text xml:space="preserve" text-anchor="start" x="603.92" y="-294.5" font-family="Helvetica Neue,Helvetica,Arial,sans-serif" font-weight="bold" font-size="10.00">RIB</text>
<text xml:space="preserve" text-anchor="start" x="572.8" y="-286.4" font-family="Helvetica Neue,Helvetica,Arial,sans-serif" font-size="8.00">(NLRI → attribute refs)</text>
<path fill="#ab47bc" stroke="none" d="M545.8,-225C545.8,-225 608.8,-225 608.8,-225 614.8,-225 620.8,-231 620.8,-237 620.8,-237 620.8,-267 620.8,-267 620.8,-273 614.8,-279 608.8,-279 608.8,-279 545.8,-279 545.8,-279 539.8,-279 533.8,-273 533.8,-267 533.8,-267 533.8,-237 533.8,-237 533.8,-231 539.8,-225 545.8,-225"/>
<text xml:space="preserve" text-anchor="start" x="541.67" y="-264.5" font-family="Helvetica Neue,Helvetica,Arial,sans-serif" font-weight="bold" font-size="10.00" fill="white">Attribute Pools</text>
<text xml:space="preserve" text-anchor="start" x="549.17" y="-256.4" font-family="Helvetica Neue,Helvetica,Arial,sans-serif" font-size="8.00" fill="white">per&#45;type dedup:</text>
<text xml:space="preserve" text-anchor="start" x="542.8" y="-248.4" font-family="Helvetica Neue,Helvetica,Arial,sans-serif" font-size="8.00" fill="white">ORIGIN · AS_PATH</text>
<text xml:space="preserve" text-anchor="start" x="539.8" y="-240.4" font-family="Helvetica Neue,Helvetica,Arial,sans-serif" font-size="8.00" fill="white">LOCAL_PREF · MED</text>
<text xml:space="preserve" text-anchor="start" x="554.05" y="-232.4" font-family="Helvetica Neue,Helvetica,Arial,sans-serif" font-size="8.00" fill="white">Communities</text>
<path fill="#ab47bc" stroke="none" d="M632.8,-225C632.8,-225 679.3,-225 679.3,-225 685.3,-225 691.3,-231 691.3,-237 691.3,-237 691.3,-267 691.3,-267 691.3,-273 685.3,-279 679.3,-279 679.3,-279 632.8,-279 632.8,-279 626.8,-279 620.8,-273 620.8,-267 620.8,-267 620.8,-237 620.8,-237 620.8,-231 626.8,-225 632.8,-225"/>
<text xml:space="preserve" text-anchor="start" x="629.42" y="-264.5" font-family="Helvetica Neue,Helvetica,Arial,sans-serif" font-weight="bold" font-size="10.00" fill="white">NLRI Pools</text>
<text xml:space="preserve" text-anchor="start" x="637.67" y="-256.4" font-family="Helvetica Neue,Helvetica,Arial,sans-serif" font-size="8.00" fill="white">per&#45;family:</text>
<text xml:space="preserve" text-anchor="start" x="636.92" y="-248.4" font-family="Helvetica Neue,Helvetica,Arial,sans-serif" font-size="8.00" fill="white">IPv4 · IPv6</text>
<text xml:space="preserve" text-anchor="start" x="626.8" y="-240.4" font-family="Helvetica Neue,Helvetica,Arial,sans-serif" font-size="8.00" fill="white">VPN · FlowSpec</text>
<text xml:space="preserve" text-anchor="start" x="645.17" y="-232.4" font-family="Helvetica Neue,Helvetica,Arial,sans-serif" font-size="8.00" fill="white">EVPN</text>
<path fill="#ce93d8" stroke="none" d="M541.8,-201C541.8,-201 683.3,-201 683.3,-201 687.3,-201 691.3,-205 691.3,-209 691.3,-209 691.3,-217 691.3,-217 691.3,-221 687.3,-225 683.3,-225 683.3,-225 541.8,-225 541.8,-225 537.8,-225 533.8,-221 533.8,-217 533.8,-217 533.8,-209 533.8,-209 533.8,-205 537.8,-201 541.8,-201"/>
<text xml:space="preserve" text-anchor="start" x="568.3" y="-209.5" font-family="Helvetica Neue,Helvetica,Arial,sans-serif" font-size="10.00">Best&#45;Path Selection</text>
<path fill="none" stroke="#7b1fa2" d="M544.8,-200C544.8,-200 680.3,-200 680.3,-200 686.3,-200 692.3,-206 692.3,-212 692.3,-212 692.3,-321.25 692.3,-321.25 692.3,-327.25 686.3,-333.25 680.3,-333.25 680.3,-333.25 544.8,-333.25 544.8,-333.25 538.8,-333.25 532.8,-327.25 532.8,-321.25 532.8,-321.25 532.8,-212 532.8,-212 532.8,-206 538.8,-200 544.8,-200"/>
<path fill="#e1bee7" stroke="none" d="M716.3,-290.17C716.3,-290.17 767.3,-290.17 767.3,-290.17 773.3,-290.17 779.3,-296.17 779.3,-302.17 779.3,-302.17 779.3,-317.25 779.3,-317.25 779.3,-323.25 773.3,-329.25 767.3,-329.25 767.3,-329.25 716.3,-329.25 716.3,-329.25 710.3,-329.25 704.3,-323.25 704.3,-317.25 704.3,-317.25 704.3,-302.17 704.3,-302.17 704.3,-296.17 710.3,-290.17 716.3,-290.17"/>
<text xml:space="preserve" text-anchor="start" x="726.42" y="-310.21" font-family="Helvetica Neue,Helvetica,Arial,sans-serif" font-weight="bold" font-size="10.00">bgp&#45;rs</text>
<text xml:space="preserve" text-anchor="start" x="715.92" y="-302.11" font-family="Helvetica Neue,Helvetica,Arial,sans-serif" font-size="8.00">(Route Server)</text>
<path fill="#e1bee7" stroke="none" d="M716.3,-247.08C716.3,-247.08 767.3,-247.08 767.3,-247.08 773.3,-247.08 779.3,-253.08 779.3,-259.08 779.3,-259.08 779.3,-274.17 779.3,-274.17 779.3,-280.17 773.3,-286.17 767.3,-286.17 767.3,-286.17 716.3,-286.17 716.3,-286.17 710.3,-286.17 704.3,-280.17 704.3,-274.17 704.3,-274.17 704.3,-259.08 704.3,-259.08 704.3,-253.08 710.3,-247.08 716.3,-247.08"/>
<text xml:space="preserve" text-anchor="start" x="726.05" y="-267.12" font-family="Helvetica Neue,Helvetica,Arial,sans-serif" font-weight="bold" font-size="10.00">bgp&#45;gr</text>
<text xml:space="preserve" text-anchor="start" x="710.3" y="-259.02" font-family="Helvetica Neue,Helvetica,Arial,sans-serif" font-size="8.00">(Graceful Restart)</text>
<path fill="#e1bee7" stroke="none" d="M716.3,-204C716.3,-204 767.3,-204 767.3,-204 773.3,-204 779.3,-210 779.3,-216 779.3,-216 779.3,-231.08 779.3,-231.08 779.3,-237.08 773.3,-243.08 767.3,-243.08 767.3,-243.08 716.3,-243.08 716.3,-243.08 710.3,-243.08 704.3,-237.08 704.3,-231.08 704.3,-231.08 704.3,-216 704.3,-216 704.3,-210 710.3,-204 716.3,-204"/>
<text xml:space="preserve" text-anchor="start" x="721.92" y="-224.04" font-family="Helvetica Neue,Helvetica,Arial,sans-serif" font-weight="bold" font-size="10.00">bgp&#45;role</text>
<text xml:space="preserve" text-anchor="start" x="710.67" y="-215.94" font-family="Helvetica Neue,Helvetica,Arial,sans-serif" font-size="8.00">(Leak Prevention)</text>
<path fill="#e1bee7" stroke="none" d="M807.3,-264.62C807.3,-264.62 859.8,-264.62 859.8,-264.62 865.8,-264.62 871.8,-270.62 871.8,-276.62 871.8,-276.62 871.8,-317.25 871.8,-317.25 871.8,-323.25 865.8,-329.25 859.8,-329.25 859.8,-329.25 807.3,-329.25 807.3,-329.25 801.3,-329.25 795.3,-323.25 795.3,-317.25 795.3,-317.25 795.3,-276.62 795.3,-276.62 795.3,-270.62 801.3,-264.62 807.3,-264.62"/>
<text xml:space="preserve" text-anchor="start" x="811.8" y="-301.44" font-family="Helvetica Neue,Helvetica,Arial,sans-serif" font-weight="bold" font-size="10.00">bgp&#45;nlri&#45;*</text>
<text xml:space="preserve" text-anchor="start" x="803.17" y="-293.34" font-family="Helvetica Neue,Helvetica,Arial,sans-serif" font-size="8.00">(VPN · FlowSpec</text>
<text xml:space="preserve" text-anchor="start" x="803.55" y="-285.34" font-family="Helvetica Neue,Helvetica,Arial,sans-serif" font-size="8.00">EVPN · BGP&#45;LS)</text>
<path fill="#e1bee7" stroke="none" d="M807.3,-204C807.3,-204 859.8,-204 859.8,-204 865.8,-204 871.8,-210 871.8,-216 871.8,-216 871.8,-248.62 871.8,-248.62 871.8,-254.62 865.8,-260.62 859.8,-260.62 859.8,-260.62 807.3,-260.62 807.3,-260.62 801.3,-260.62 795.3,-254.62 795.3,-248.62 795.3,-248.62 795.3,-216 795.3,-216 795.3,-210 801.3,-204 807.3,-204"/>
<text xml:space="preserve" text-anchor="start" x="801.3" y="-232.81" font-family="Helvetica Neue,Helvetica,Arial,sans-serif" font-weight="bold" font-size="10.00">bgp&#45;adj&#45;rib&#45;in</text>
<text xml:space="preserve" text-anchor="start" x="812.92" y="-224.71" font-family="Helvetica Neue,Helvetica,Arial,sans-serif" font-size="8.00">(Adj&#45;RIB&#45;In)</text>
<path fill="none" stroke="#6a1b9a" stroke-width="2" d="M531.8,-183C531.8,-183 876.8,-183 876.8,-183 882.8,-183 888.8,-189 888.8,-195 888.8,-195 888.8,-362 888.8,-362 888.8,-368 882.8,-374 876.8,-374 876.8,-374 531.8,-374 531.8,-374 525.8,-374 519.8,-368 519.8,-362 519.8,-362 519.8,-195 519.8,-195 519.8,-189 525.8,-183 531.8,-183"/>
</g>
<!-- boundary&#45;&gt;plugins -->
<g id="edge8" class="edge">
<title>boundary&#45;&gt;plugins:rib</title>
<path fill="none" stroke="#7b1fa2" stroke-width="2" d="M587.56,-444.28C568.74,-427.96 544.68,-403.05 533.8,-375 522.71,-346.42 503.67,-307.78 520.5,-296.93"/>
<polygon fill="#7b1fa2" stroke="#7b1fa2" stroke-width="2" points="520.94,-300.43 529.85,-294.7 519.31,-293.62 520.94,-300.43"/>
<text xml:space="preserve" text-anchor="start" x="557.37" y="-407.7" font-family="Helvetica Neue,Helvetica,Arial,sans-serif" font-weight="bold" font-size="9.00" fill="#7b1fa2">to each plugin process</text>
</g>
<!-- bottom -->
<g id="node7" class="node">
<title>bottom</title>
<path fill="#f1f8e9" stroke="none" d="M461.8,-12C461.8,-12 742.8,-12 742.8,-12 748.8,-12 754.8,-18 754.8,-24 754.8,-24 754.8,-99 754.8,-99 754.8,-105 748.8,-111 742.8,-111 742.8,-111 461.8,-111 461.8,-111 455.8,-111 449.8,-105 449.8,-99 449.8,-99 449.8,-24 449.8,-24 449.8,-18 455.8,-12 461.8,-12"/>
<text xml:space="preserve" text-anchor="start" x="526.17" y="-91.33" font-family="Helvetica Neue,Helvetica,Arial,sans-serif" font-weight="bold" font-size="10.00" fill="#33691e">Return Paths &#160;(plugin → engine)</text>
<text xml:space="preserve" text-anchor="start" x="456.8" y="-58" font-family="Helvetica Neue,Helvetica,Arial,sans-serif" font-size="10.00" fill="#2e7d32">1.</text>
<text xml:space="preserve" text-anchor="start" x="477.05" y="-58.58" font-family="Helvetica Neue,Helvetica,Arial,sans-serif" font-size="9.00" fill="#2e7d32">Best&#45;path → &#160;&quot;bgp cache &lt;id&gt; forward &lt;sel&gt;&quot; &#160;→ &#160;Hub &#160;→ &#160;Reactor</text>
<text xml:space="preserve" text-anchor="start" x="456.8" y="-25.67" font-family="Helvetica Neue,Helvetica,Arial,sans-serif" font-size="10.00" fill="#c62828">2.</text>
<text xml:space="preserve" text-anchor="start" x="477.05" y="-26.24" font-family="Helvetica Neue,Helvetica,Arial,sans-serif" font-size="9.00" fill="#c62828">BGP Cache &#160;→ &#160;zero&#45;copy forward &#160;→ &#160;Session Buffer &#160;→ &#160;Peer TCP</text>
<path fill="none" stroke="#558b2f" d="M461.8,-12C461.8,-12 742.8,-12 742.8,-12 748.8,-12 754.8,-18 754.8,-24 754.8,-24 754.8,-99 754.8,-99 754.8,-105 748.8,-111 742.8,-111 742.8,-111 461.8,-111 461.8,-111 455.8,-111 449.8,-105 449.8,-99 449.8,-99 449.8,-24 449.8,-24 449.8,-18 455.8,-12 461.8,-12"/>
<path fill="#fafafa" stroke="none" d="M778.8,-12C778.8,-12 946.8,-12 946.8,-12 952.8,-12 958.8,-18 958.8,-24 958.8,-24 958.8,-99 958.8,-99 958.8,-105 952.8,-111 946.8,-111 946.8,-111 778.8,-111 778.8,-111 772.8,-111 766.8,-105 766.8,-99 766.8,-99 766.8,-24 766.8,-24 766.8,-18 772.8,-12 778.8,-12"/>
<text xml:space="preserve" text-anchor="start" x="821.55" y="-96.5" font-family="Helvetica Neue,Helvetica,Arial,sans-serif" font-weight="bold" font-size="10.00">Data Flow Colors</text>
<text xml:space="preserve" text-anchor="start" x="772.8" y="-72.6" font-family="Helvetica Neue,Helvetica,Arial,sans-serif" font-weight="bold" font-size="12.00" fill="#bf8040">━</text>
<text xml:space="preserve" text-anchor="start" x="794.8" y="-72.58" font-family="Helvetica Neue,Helvetica,Arial,sans-serif" font-size="9.00">TCP from peers</text>
<text xml:space="preserve" text-anchor="start" x="867.8" y="-72.6" font-family="Helvetica Neue,Helvetica,Arial,sans-serif" font-weight="bold" font-size="12.00" fill="#00695c">━</text>
<text xml:space="preserve" text-anchor="start" x="889.8" y="-72.58" font-family="Helvetica Neue,Helvetica,Arial,sans-serif" font-size="9.00">Wire byte flow</text>
<text xml:space="preserve" text-anchor="start" x="772.8" y="-47.6" font-family="Helvetica Neue,Helvetica,Arial,sans-serif" font-weight="bold" font-size="12.00" fill="#283593">━</text>
<text xml:space="preserve" text-anchor="start" x="794.8" y="-47.58" font-family="Helvetica Neue,Helvetica,Arial,sans-serif" font-size="9.00">Internal events</text>
<text xml:space="preserve" text-anchor="start" x="867.8" y="-47.6" font-family="Helvetica Neue,Helvetica,Arial,sans-serif" font-weight="bold" font-size="12.00" fill="#f9a825">━</text>
<text xml:space="preserve" text-anchor="start" x="889.8" y="-47.58" font-family="Helvetica Neue,Helvetica,Arial,sans-serif" font-size="9.00">Config pipeline</text>
<text xml:space="preserve" text-anchor="start" x="772.8" y="-22.6" font-family="Helvetica Neue,Helvetica,Arial,sans-serif" font-weight="bold" font-size="12.00" fill="#c62828">━</text>
<text xml:space="preserve" text-anchor="start" x="794.8" y="-22.57" font-family="Helvetica Neue,Helvetica,Arial,sans-serif" font-size="9.00">JSON events ↓</text>
<text xml:space="preserve" text-anchor="start" x="867.8" y="-22.6" font-family="Helvetica Neue,Helvetica,Arial,sans-serif" font-weight="bold" font-size="12.00" fill="#7b1fa2">━</text>
<text xml:space="preserve" text-anchor="start" x="889.8" y="-22.57" font-family="Helvetica Neue,Helvetica,Arial,sans-serif" font-size="9.00">Plugin dispatch</text>
<path fill="none" stroke="#e0e0e0" d="M778.8,-12C778.8,-12 946.8,-12 946.8,-12 952.8,-12 958.8,-18 958.8,-24 958.8,-24 958.8,-99 958.8,-99 958.8,-105 952.8,-111 946.8,-111 946.8,-111 778.8,-111 778.8,-111 772.8,-111 766.8,-105 766.8,-99 766.8,-99 766.8,-24 766.8,-24 766.8,-18 772.8,-12 778.8,-12"/>
</g>
<!-- plugins&#45;&gt;bottom -->
</g>
</svg>
